<mxfile host="65bd71144e">
    <diagram name="ページ1" id="wKn0r9vwBd4LzBaEQ4s1">
        <mxGraphModel dx="1372" dy="451" grid="1" gridSize="10" guides="1" tooltips="1" connect="1" arrows="1" fold="1" page="1" pageScale="1" pageWidth="827" pageHeight="1169" math="1" shadow="0">
            <root>
                <mxCell id="0"/>
                <mxCell id="1" parent="0"/>
                <mxCell id="K9dk4Z5BuOxOLnvvwSyS-1" value="" style="rounded=0;whiteSpace=wrap;html=1;" parent="1" vertex="1">
                    <mxGeometry x="40" y="400" width="160" height="240" as="geometry"/>
                </mxCell>
                <mxCell id="K9dk4Z5BuOxOLnvvwSyS-2" value="" style="rounded=0;whiteSpace=wrap;html=1;" parent="1" vertex="1">
                    <mxGeometry x="220" y="440" width="240" height="160" as="geometry"/>
                </mxCell>
                <mxCell id="K9dk4Z5BuOxOLnvvwSyS-3" value="" style="rounded=0;whiteSpace=wrap;html=1;" parent="1" vertex="1">
                    <mxGeometry x="40" y="520" width="160" height="20" as="geometry"/>
                </mxCell>
                <mxCell id="K9dk4Z5BuOxOLnvvwSyS-5" value="" style="rounded=0;whiteSpace=wrap;html=1;" parent="1" vertex="1">
                    <mxGeometry x="300" y="440" width="20" height="160" as="geometry"/>
                </mxCell>
                <mxCell id="K9dk4Z5BuOxOLnvvwSyS-6" value="" style="rounded=0;whiteSpace=wrap;html=1;" parent="1" vertex="1">
                    <mxGeometry x="485" y="400" width="240" height="240" as="geometry"/>
                </mxCell>
                <mxCell id="K9dk4Z5BuOxOLnvvwSyS-7" value="" style="rounded=0;whiteSpace=wrap;html=1;fillColor=#f5f5f5;fontColor=#333333;strokeColor=#666666;" parent="1" vertex="1">
                    <mxGeometry x="565" y="520" width="20" height="20" as="geometry"/>
                </mxCell>
                <mxCell id="K9dk4Z5BuOxOLnvvwSyS-8" value="$$\cdots$$" style="text;html=1;align=center;verticalAlign=middle;resizable=0;points=[];autosize=1;strokeColor=none;fillColor=none;" parent="1" vertex="1">
                    <mxGeometry x="80" y="515" width="80" height="30" as="geometry"/>
                </mxCell>
                <mxCell id="K9dk4Z5BuOxOLnvvwSyS-9" value="" style="rounded=0;whiteSpace=wrap;html=1;fillColor=#f5f5f5;fontColor=#333333;strokeColor=#666666;" parent="1" vertex="1">
                    <mxGeometry x="40" y="520" width="60" height="20" as="geometry"/>
                </mxCell>
                <mxCell id="K9dk4Z5BuOxOLnvvwSyS-10" value="" style="rounded=0;whiteSpace=wrap;html=1;fillColor=#f5f5f5;fontColor=#333333;strokeColor=#666666;" parent="1" vertex="1">
                    <mxGeometry x="140" y="520" width="60" height="20" as="geometry"/>
                </mxCell>
                <mxCell id="K9dk4Z5BuOxOLnvvwSyS-11" value="" style="rounded=0;whiteSpace=wrap;html=1;fillColor=#f5f5f5;fontColor=#333333;strokeColor=#666666;" parent="1" vertex="1">
                    <mxGeometry x="300" y="440" width="20" height="60" as="geometry"/>
                </mxCell>
                <mxCell id="K9dk4Z5BuOxOLnvvwSyS-12" value="" style="rounded=0;whiteSpace=wrap;html=1;fillColor=#f5f5f5;fontColor=#333333;strokeColor=#666666;" parent="1" vertex="1">
                    <mxGeometry x="300" y="540" width="20" height="60" as="geometry"/>
                </mxCell>
                <mxCell id="K9dk4Z5BuOxOLnvvwSyS-13" value="$$\vdots$$" style="text;html=1;align=center;verticalAlign=middle;resizable=0;points=[];autosize=1;strokeColor=none;fillColor=none;" parent="1" vertex="1">
                    <mxGeometry x="270" y="505" width="80" height="30" as="geometry"/>
                </mxCell>
                <mxCell id="K9dk4Z5BuOxOLnvvwSyS-14" value="$$a^\top_{i_1}$$" style="text;html=1;align=center;verticalAlign=middle;resizable=0;points=[];autosize=1;strokeColor=none;fillColor=none;fontSize=17;" parent="1" vertex="1">
                    <mxGeometry x="-5" y="485" width="150" height="30" as="geometry"/>
                </mxCell>
                <mxCell id="K9dk4Z5BuOxOLnvvwSyS-15" value="$$a^\top_{i_k}$$" style="text;html=1;align=center;verticalAlign=middle;resizable=0;points=[];autosize=1;strokeColor=none;fillColor=none;fontSize=17;" parent="1" vertex="1">
                    <mxGeometry x="95" y="485" width="150" height="30" as="geometry"/>
                </mxCell>
                <mxCell id="K9dk4Z5BuOxOLnvvwSyS-16" value="$$b_{j_1}$$" style="text;html=1;align=center;verticalAlign=middle;resizable=0;points=[];autosize=1;strokeColor=none;fillColor=none;fontSize=17;" parent="1" vertex="1">
                    <mxGeometry x="225" y="455" width="110" height="30" as="geometry"/>
                </mxCell>
                <mxCell id="K9dk4Z5BuOxOLnvvwSyS-17" value="$$b_{j_k}$$" style="text;html=1;align=center;verticalAlign=middle;resizable=0;points=[];autosize=1;strokeColor=none;fillColor=none;fontSize=17;" parent="1" vertex="1">
                    <mxGeometry x="225" y="555" width="110" height="30" as="geometry"/>
                </mxCell>
                <mxCell id="K9dk4Z5BuOxOLnvvwSyS-18" value="$$\sum_{\ell\in[k]} \langle a_{i_\ell},b_{j_\ell} \rangle = \sum_{\ell\in[k]} (AB)_{i_\ell,j_\ell}$$" style="text;html=1;align=center;verticalAlign=middle;resizable=0;points=[];autosize=1;strokeColor=none;fillColor=none;fontSize=16;" parent="1" vertex="1">
                    <mxGeometry x="275" y="555" width="660" height="30" as="geometry"/>
                </mxCell>
                <mxCell id="K9dk4Z5BuOxOLnvvwSyS-19" value="$$A&#39;$$" style="text;html=1;align=center;verticalAlign=middle;resizable=0;points=[];autosize=1;strokeColor=none;fillColor=none;fontSize=20;" parent="1" vertex="1">
                    <mxGeometry x="75" y="640" width="90" height="40" as="geometry"/>
                </mxCell>
                <mxCell id="K9dk4Z5BuOxOLnvvwSyS-20" value="$$B&#39;$$" style="text;html=1;align=center;verticalAlign=middle;resizable=0;points=[];autosize=1;strokeColor=none;fillColor=none;fontSize=20;" parent="1" vertex="1">
                    <mxGeometry x="295" y="640" width="90" height="40" as="geometry"/>
                </mxCell>
                <mxCell id="K9dk4Z5BuOxOLnvvwSyS-21" value="$$A&#39;\cdot B&#39;$$" style="text;html=1;align=center;verticalAlign=middle;resizable=0;points=[];autosize=1;strokeColor=none;fillColor=none;fontSize=20;" parent="1" vertex="1">
                    <mxGeometry x="530" y="640" width="150" height="40" as="geometry"/>
                </mxCell>
                <mxCell id="i7psw_xjMfCCjCvfuG0w-1" value="$$=$$" style="text;html=1;align=center;verticalAlign=middle;resizable=0;points=[];autosize=1;strokeColor=none;fillColor=none;fontSize=15;" parent="1" vertex="1">
                    <mxGeometry x="438" y="510" width="70" height="30" as="geometry"/>
                </mxCell>
                <mxCell id="i7psw_xjMfCCjCvfuG0w-2" value="$$\cdot$$" style="text;html=1;align=center;verticalAlign=middle;resizable=0;points=[];autosize=1;strokeColor=none;fillColor=none;fontSize=15;" parent="1" vertex="1">
                    <mxGeometry x="165" y="505" width="90" height="30" as="geometry"/>
                </mxCell>
            </root>
        </mxGraphModel>
    </diagram>
</mxfile>